<?xml version="1.0" encoding="UTF-8" standalone="no"?>
<!DOCTYPE svg PUBLIC "-//W3C//DTD SVG 1.1//EN" "http://www.w3.org/Graphics/SVG/1.1/DTD/svg11.dtd">
<svg width="100%" height="100%" viewBox="0 0 1139 1141" version="1.1" xmlns="http://www.w3.org/2000/svg" xmlns:xlink="http://www.w3.org/1999/xlink" xml:space="preserve" xmlns:serif="http://www.serif.com/" style="fill-rule:evenodd;clip-rule:evenodd;stroke-linecap:round;stroke-linejoin:round;stroke-miterlimit:1.5;">
    <g id="Final-Single" serif:id="Final Single" transform="matrix(1,0,0,1,1241,61)">
        <rect x="-1241" y="-61" width="1139" height="1141" style="fill:none;"/>
        <g transform="matrix(4.28373,0,0,4.28373,2780.03,-1193.28)">
            <g transform="matrix(1,0,0,1,-966.729,29)">
                <path d="M78,269L78,300L115,300L115,439L79,439L79,417L48,417L48,441C48,452.777 57.518,470 70,470L118,470C132.314,470 148,455.475 148,443L148,268L78,269Z" style="fill:none;stroke:#dcdce5;stroke-width:15px;"/>
            </g>
            <g transform="matrix(1,0,0,1,-965.729,27)">
                <path d="M174,269L174,470L204,470L204,405.42L242,381.42L242,470L273,470L273,269L242,269L242,341.42L205,365.42L205,269L174,269Z" style="fill:none;stroke:#dcdce5;stroke-width:15px;"/>
            </g>
        </g>
    </g>
</svg>
